<?xml version="1.0" encoding="UTF-8"?>
<svg width="353px" height="62px" viewBox="0 0 353 62" version="1.1" xmlns="http://www.w3.org/2000/svg" xmlns:xlink="http://www.w3.org/1999/xlink">
    <!-- Generator: Sketch 63.1 (92452) - https://sketch.com -->
    <title>Logo DHBW Stuttgart</title>
    <desc>Created with Sketch.</desc>
    <g id="Menu" stroke="none" stroke-width="1" fill="none" fill-rule="evenodd">
        <g id="01-Menu" transform="translate(-155.000000, -22.000000)">
            <g id="logo-dhbw-Stuttgart" transform="translate(155.000000, 22.000000)">
                <g id="Group" transform="translate(200.000000, 16.000000)" fill="#5C6971" fill-rule="nonzero">
                    <path d="M16.2583256,21.2735526 C16.2583256,22.4451965 16.0480375,23.5283032 15.6274615,24.51697 C15.2078727,25.5095719 14.6145247,26.3595302 13.8424814,27.0717638 C13.0724125,27.7839975 12.1473426,28.3417826 11.0682589,28.7451193 C9.98917526,29.1494398 8.79260673,29.3511082 7.4765788,29.3511082 C6.72033169,29.3511082 5.96408458,29.2901158 5.20783747,29.164196 C4.44961582,29.03926 3.74964298,28.8857953 3.10693166,28.7038019 C2.46323308,28.5208248 1.90937586,28.3417826 1.44733455,28.1578217 C0.984305963,27.9768121 0.654558529,27.8312174 0.460066779,27.7200538 L1.34268416,25.0393403 C1.51051968,25.1514876 1.81163635,25.305936 2.24603417,25.5007181 C2.67845745,25.696484 3.18393855,25.8912661 3.75852839,26.0880157 C4.33213096,26.2837816 4.94818605,26.4510188 5.60669365,26.5897273 C6.26421398,26.731387 6.88816721,26.8002494 7.4765788,26.8002494 C8.34438716,26.8002494 9.1213669,26.6674434 9.80751799,26.4028151 C10.4926818,26.1372031 11.0820807,25.7742001 11.5717655,25.3157735 C12.060463,24.8543956 12.4316757,24.3182529 12.6844163,23.7034104 C12.9371568,23.0905353 13.0635271,22.4481478 13.0635271,21.7782153 C13.0635271,20.8298822 12.7604359,19.9779563 12.1601771,19.2244053 C11.5579437,18.4708542 10.7947858,17.7596044 9.8716904,17.0896719 C8.9466205,16.4197395 7.95935273,15.7635795 6.9098871,15.1221757 C5.86042146,14.480772 4.8731537,13.797067 3.9480838,13.0710609 C3.02400117,12.3460386 2.26084319,11.5580564 1.65959712,10.7061305 C1.05736378,9.85518842 0.756247109,8.8852128 0.756247109,7.7971874 C0.756247109,6.73670696 0.951726127,5.76082885 1.3446587,4.86660183 C1.73561673,3.97434231 2.28355034,3.20013255 2.98352319,2.54397257 C3.68349604,1.88879634 4.52366091,1.37232859 5.5040178,0.995553073 C6.48338742,0.617793804 7.56247109,0.429897918 8.738307,0.429897918 C9.41063635,0.429897918 10.0967874,0.492857796 10.7967603,0.617793804 C11.4967331,0.74371356 12.1542535,0.890292026 12.7712958,1.0575292 C13.3863636,1.22476638 13.9106028,1.3929873 14.3469752,1.56022448 C14.7803857,1.72746166 15.0815024,1.85338141 15.2493379,1.937 L14.3677078,4.53212748 C14.2255412,4.42194769 13.9382463,4.27438547 13.505823,4.09337583 C13.0724125,3.91236618 12.5807532,3.73824276 12.0367686,3.57002184 C11.4898223,3.40278466 10.9221433,3.2562062 10.3327444,3.13127019 C9.74433286,3.00535043 9.21219553,2.9433743 8.738307,2.9433743 C7.16953852,2.9433743 5.97099545,3.3339223 5.1456396,4.11501828 C4.31830921,4.89611427 3.90563128,5.95659472 3.90563128,7.29547588 C3.90563128,8.13362925 4.21365883,8.89308278 4.83168845,9.57678771 C5.4487308,10.2604926 6.20991425,10.9304251 7.12017513,11.5856013 C8.02944875,12.2417613 9.01671651,12.8979213 10.0809912,13.5530975 C11.1452658,14.2092575 12.1315463,14.9136211 13.0427945,15.6661884 C13.9520681,16.4207232 14.7152261,17.2569091 15.3322684,18.1786811 C15.9493108,19.0975018 16.2583256,20.1294535 16.2583256,21.2735526 Z" id="Path"></path>
                    <path d="M29.9773985,28.9133403 C29.7256452,28.9822026 29.4452611,29.0451625 29.1372336,29.1012362 C28.8292061,29.1573098 28.4994586,29.2104322 28.1499658,29.2684733 C27.800473,29.324547 27.4835601,29.3511082 27.2051506,29.3511082 C26.3639984,29.3511082 25.658102,29.2261722 25.0835121,28.9743327 C24.5099096,28.7244606 24.0478683,28.3821163 23.6973882,27.9482834 C23.3478954,27.5174017 23.0971294,27.0235602 22.9411411,26.4628238 C22.7871273,25.9060223 22.7101204,25.333481 22.7101204,24.7471671 L22.7101204,10.2231102 L19.1826127,10.2231102 L19.1826127,7.83752108 L22.7101204,7.83752108 L22.7101204,2.14457085 L25.6107131,2.14457085 L25.6107131,7.83752108 L29.769085,7.83752108 L29.769085,10.2231102 L25.6107131,10.2231102 L25.6107131,24.4549939 C25.6107131,25.0422915 25.743007,25.6059792 26.0095693,26.1509756 C26.2761316,26.6969558 26.7292875,26.9674865 27.3749606,26.9674865 C27.7659187,26.9674865 28.2013038,26.8907542 28.6761796,26.7382732 C29.1520426,26.5857923 29.4758664,26.4529863 29.6427147,26.340839 L30.5253321,28.7283956 C30.4117963,28.7805343 30.230139,28.8425104 29.9773985,28.9133403 Z" id="Path"></path>
                    <path d="M47.175603,28.8503804 L47.175603,25.8784774 C47.0916852,26.0201371 46.9031171,26.2827979 46.6089113,26.6743296 C46.3147055,27.0658614 45.929671,27.4573931 45.453808,27.8459736 C44.9789322,28.2365216 44.4240877,28.5857522 43.7942109,28.8916978 C43.1633468,29.1986272 42.4702848,29.3511082 41.7150249,29.3511082 C40.5658453,29.3511082 39.5785775,29.1494398 38.7532216,28.7451193 C37.9268785,28.3417826 37.2486256,27.8115424 36.7174755,27.1553824 C36.1853382,26.4992224 35.7914183,25.7397689 35.5416396,24.8750543 C35.2898863,24.009356 35.163516,23.1170965 35.163516,22.1953245 L35.163516,7.83752108 L38.0641087,7.83752108 L38.0641087,21.943485 C38.0641087,22.5858725 38.1391411,23.2066176 38.2931549,23.8067039 C38.4461814,24.4067902 38.6781893,24.9370305 38.9862168,25.3974246 C39.2942444,25.8588024 39.7000114,26.235578 40.2045053,26.5267674 C40.7080118,26.8199243 41.3240669,26.9665028 42.050696,26.9665028 C42.7249999,26.9665028 43.3538894,26.7913956 43.942301,26.4421651 C44.5316999,26.0939182 45.0470537,25.696484 45.4962605,25.2488786 C45.9434928,24.8032407 46.2998965,24.3576028 46.5664588,23.9109812 C46.8340083,23.4653433 46.9791367,23.1564464 47.0077674,22.9892092 L47.0077674,7.83752108 L49.9063856,7.83752108 L49.9063856,28.8503804 L47.175603,28.8503804 Z" id="Path"></path>
                    <path d="M65.7559823,28.9133403 C65.5032418,28.9822026 65.223845,29.0451625 64.9138429,29.1012362 C64.6058154,29.1573098 64.2760679,29.2104322 63.9265752,29.2684733 C63.5770824,29.324547 63.2611567,29.3511082 62.9817599,29.3511082 C62.1406078,29.3511082 61.4347113,29.2261722 60.862096,28.9743327 C60.2875062,28.7244606 59.8244776,28.3821163 59.4759721,27.9482834 C59.1264793,27.5174017 58.8727515,27.0235602 58.719725,26.4628238 C58.5657112,25.9060223 58.4887043,25.333481 58.4887043,24.7471671 L58.4887043,10.2231102 L54.9602093,10.2231102 L54.9602093,7.83752108 L58.4887043,7.83752108 L58.4887043,2.14457085 L61.3883097,2.14457085 L61.3883097,7.83752108 L65.5476688,7.83752108 L65.5476688,10.2231102 L61.3883097,10.2231102 L61.3883097,24.4549939 C61.3883097,25.0422915 61.5215909,25.6059792 61.7861786,26.1509756 C62.0527409,26.6969558 62.5068841,26.9674865 63.15157,26.9674865 C63.542528,26.9674865 63.9779131,26.8907542 64.4537761,26.7382732 C64.9286519,26.5857923 65.2524758,26.4529863 65.4203113,26.340839 L66.3029287,28.7283956 C66.1903801,28.7805343 66.0077356,28.8425104 65.7559823,28.9133403 Z" id="Path"></path>
                    <path d="M80.7022291,28.9133403 C80.4494885,28.9822026 80.1700917,29.0451625 79.8610769,29.1012362 C79.5530494,29.1573098 79.2233019,29.2104322 78.8738091,29.2684733 C78.5243164,29.324547 78.2074034,29.3511082 77.9289939,29.3511082 C77.0878418,29.3511082 76.3819453,29.2261722 75.8083427,28.9743327 C75.2337529,28.7244606 74.7717116,28.3821163 74.4222188,27.9482834 C74.072726,27.5174017 73.8209727,27.0235602 73.6659717,26.4628238 C73.5119579,25.9060223 73.434951,25.333481 73.434951,24.7471671 L73.434951,10.2231102 L69.9074433,10.2231102 L69.9074433,7.83752108 L73.434951,7.83752108 L73.434951,2.14457085 L76.3345565,2.14457085 L76.3345565,7.83752108 L80.4939156,7.83752108 L80.4939156,10.2231102 L76.3345565,10.2231102 L76.3345565,24.4549939 C76.3345565,25.0422915 76.4678376,25.6059792 76.7334126,26.1509756 C76.9989877,26.6969558 77.4531308,26.9674865 78.0988039,26.9674865 C78.489762,26.9674865 78.9251471,26.8907542 79.4010101,26.7382732 C79.8758859,26.5857923 80.1997098,26.4529863 80.3675453,26.340839 L81.2491754,28.7283956 C81.1366269,28.7805343 80.9549696,28.8425104 80.7022291,28.9133403 Z" id="Path"></path>
                    <path d="M98.2874425,9.88765211 C98.3970292,10.0283281 98.5530175,10.2368827 98.7494838,10.5162671 C98.9449628,10.7956516 99.1345183,11.1379959 99.3161755,11.5423164 C99.4978328,11.9466369 99.6597447,12.4080147 99.7989495,12.922515 C99.9391415,13.4389827 100.009237,13.9908654 100.009237,14.5771793 C100.009237,15.6376597 99.8256057,16.6351803 99.4622912,17.569741 C99.0979893,18.5043017 98.5934955,19.3208126 97.9497969,20.01829 C97.3070856,20.7157674 96.5350422,21.2676501 95.6395904,21.6719705 C94.7431512,22.076291 93.7766161,22.2789431 92.7409722,22.2789431 C92.4329447,22.2789431 92.1031972,22.3360005 91.7537044,22.4461803 C91.4032244,22.5583276 91.0744642,22.6970361 90.7664367,22.865257 C90.4584091,23.0315104 90.199745,23.2351463 89.9894569,23.4712458 C89.7791689,23.7093128 89.6745185,23.9532824 89.6745185,24.2041381 C89.6745185,24.817997 89.9608262,25.3206922 90.535416,25.7112402 C91.1090186,26.1017882 91.8445331,26.2975541 92.7409722,26.2975541 C93.8881773,26.2975541 94.9949045,26.4313438 96.0581919,26.6949883 C97.1214793,26.9606003 98.0593837,27.3501646 98.8738796,27.8656486 C99.6854137,28.3821163 100.3301,29.0087638 100.805963,29.7485424 C101.280838,30.488321 101.520744,31.3313931 101.520744,32.28071 C101.520744,33.0067161 101.310456,33.7317384 100.88988,34.4577445 C100.469304,35.1827669 99.8749691,35.8526993 99.1029257,36.4675419 C98.3348314,37.080417 97.4077869,37.576226 96.3306778,37.9530015 C95.2515941,38.329777 94.0540383,38.5176729 92.7389977,38.5176729 C91.5631618,38.5176729 90.4613709,38.3642082 89.4405361,38.0572788 C88.4177266,37.7503494 87.5420201,37.3401265 86.8153911,36.822675 C86.0867874,36.3062072 85.5141721,35.6933321 85.0935961,34.9801148 C84.67302,34.2688649 84.462732,33.4946552 84.462732,32.6574855 C84.462732,31.8488446 84.6789436,31.1297247 85.1133414,30.5020934 C85.546752,29.8754459 86.0581567,29.3511082 86.6475555,28.9320315 C87.2359671,28.5139385 87.8372132,28.1863504 88.4542556,27.9482834 C89.0693234,27.7121838 89.5728299,27.5793779 89.9647752,27.5528167 C89.7692962,27.5252717 89.5017467,27.4485394 89.1660756,27.3226196 C88.8304046,27.1966998 88.5006571,27.0235602 88.1788078,26.8002494 C87.8569586,26.5769385 87.5765745,26.2857491 87.3376557,25.9207786 C87.1007114,25.5577755 86.981252,25.1239426 86.981252,24.6232148 C86.981252,24.2877567 87.0928133,23.9601686 87.3179104,23.6394667 C87.5420201,23.3207324 87.8066079,23.0324942 88.1156227,22.7816384 C88.4236503,22.5297989 88.7405632,22.3202605 89.0614252,22.1530234 C89.3822873,21.9857862 89.657735,21.8746227 89.8798702,21.818549 C89.4889122,21.677873 89.0406926,21.4486597 88.537186,21.1269741 C88.0326922,20.807256 87.5499183,20.3606343 87.0868897,19.7880929 C86.6248484,19.217519 86.2408012,18.5043017 85.9317864,17.6533596 C85.6237589,16.8024175 85.4697451,15.777352 85.4697451,14.5771793 C85.4697451,13.683936 85.6583132,12.805449 86.0364368,11.9387669 C86.4145603,11.0740523 86.9318887,10.2998426 87.5903963,9.61613763 C88.2479166,8.93341646 89.0179854,8.38153377 89.9006028,7.96245708 C90.7842075,7.54436414 91.7290227,7.3348258 92.7370231,7.3348258 C93.3797344,7.3348258 93.9898659,7.39680193 94.5644558,7.52272169 C95.1380583,7.64765769 95.5517235,7.75193499 95.8034768,7.83653733 L101.769536,7.83653733 L101.769536,9.88666836 L98.2874425,9.88765211 L98.2874425,9.88765211 Z M98.5816483,32.2816938 C98.5816483,31.1946521 98.0268038,30.2935389 96.9210639,29.582289 C95.8143368,28.8710391 94.4222892,28.5149223 92.7429467,28.5149223 C92.0419866,28.5149223 91.3627464,28.6142809 90.7052261,28.8080792 C90.0477057,29.0028614 89.466205,29.2694571 88.9617112,29.6049152 C88.4582046,29.9393895 88.0514503,30.33584 87.7434228,30.7982016 C87.4353952,31.2585957 87.2823687,31.753421 87.2823687,32.2836612 C87.2823687,32.8139015 87.4146626,33.3244667 87.6802376,33.8124058 C87.9458127,34.2993611 88.3180126,34.7351615 88.7938757,35.1099695 C89.2687515,35.4857613 89.842354,35.7867882 90.5156707,36.0091153 C91.1889873,36.2334099 91.9294381,36.3435896 92.7429467,36.3435896 C93.5831116,36.3435896 94.3531805,36.2255399 95.0531533,35.9894403 C95.7531262,35.7533408 96.3691812,35.4444439 96.9013186,35.0676684 C97.4324686,34.6908928 97.8471211,34.2580437 98.1403396,33.7701046 C98.4345454,33.2792143 98.5816483,32.7853728 98.5816483,32.2816938 Z M97.0691541,14.5761955 C97.0691541,13.0405648 96.6831324,11.8069446 95.9130635,10.8704165 C95.1429947,9.93683951 94.0846436,9.46857542 92.7419595,9.46857542 C92.0676556,9.46857542 91.4594986,9.60826765 90.9125523,9.88666836 C90.3665932,10.1660528 89.9114628,10.5428283 89.547161,11.0169949 C89.1828592,11.4911615 88.9044497,12.0361579 88.7060088,12.6500168 C88.5105298,13.2628918 88.4127903,13.9042956 88.4127903,14.5752118 C88.4127903,15.3287628 88.4888099,16.0468989 88.6428237,16.7306039 C88.7948629,17.4143088 89.0416799,18.0065251 89.3773509,18.5102042 C89.713022,19.0119157 90.1543306,19.4093499 90.7002897,19.7025069 C91.2472361,19.9956638 91.9245018,20.1412585 92.7380104,20.1412585 C93.5209137,20.1412585 94.1863322,19.9681188 94.7332786,19.6188883 C95.2812122,19.2706414 95.7274572,18.830906 96.0779372,18.3006658 C96.42743,17.7704256 96.6791833,17.1762417 96.8341844,16.5210655 C96.9911599,15.8678568 97.0691541,15.218583 97.0691541,14.5761955 Z" id="Shape"></path>
                    <path d="M117.643814,28.8503804 L117.643814,25.8784774 C117.559897,26.0457146 117.356519,26.325099 117.03467,26.7176145 C116.713808,27.1071788 116.285334,27.4977268 115.754184,27.8882748 C115.222047,28.277839 114.612902,28.6191996 113.925764,28.9133403 C113.238626,29.2064972 112.505086,29.3511082 111.720208,29.3511082 C109.87303,29.3511082 108.353625,28.8366079 107.16298,27.8036724 C105.972335,26.7707369 105.378,25.3206922 105.378,23.4505871 C105.378,22.5583276 105.636664,21.7329629 106.154979,20.9803956 C106.670333,20.2268446 107.329828,19.5716684 108.129515,19.0128994 C108.927227,18.456098 109.795036,17.9809477 110.73294,17.5903997 C111.671832,17.1998517 112.546551,16.9204672 113.359072,16.7532301 L117.475979,15.8314581 L117.475979,14.4502758 C117.475979,13.0828659 117.103779,11.9318807 116.363328,10.9963362 C115.620903,10.0617755 114.492456,9.59351143 112.980949,9.59351143 C112.532729,9.59351143 112.028235,9.67811376 111.468454,9.84535094 C110.908674,10.0125881 110.376536,10.200484 109.87303,10.4100223 C109.367549,10.6195607 108.912418,10.829099 108.507638,11.0386374 C108.100884,11.2481757 107.841233,11.3937704 107.730659,11.477389 L106.847054,9.21673591 C106.957628,9.13311732 107.225178,8.99342509 107.645754,8.79864297 C108.06633,8.60386084 108.571811,8.3943225 109.158248,8.17002793 C109.746659,7.94671712 110.397269,7.75095124 111.112051,7.58371407 C111.82782,7.41647689 112.546551,7.3328583 113.275154,7.3328583 C115.402717,7.3328583 117.103779,7.92605841 118.378342,9.11147486 C119.652904,10.2978751 120.291666,12.0361579 120.291666,14.3233723 L120.291666,28.8503804 L117.643814,28.8503804 L117.643814,28.8503804 Z M117.475979,17.9671752 L113.947484,18.72171 C113.359072,18.8614022 112.730183,19.0699568 112.056866,19.3493413 C111.384537,19.6287257 110.775392,19.9632001 110.229433,20.3537481 C109.683474,20.7452798 109.226369,21.1919015 108.864042,21.693613 C108.49974,22.1963083 108.317096,22.7383535 108.317096,23.3256511 C108.317096,24.4963113 108.673499,25.4180833 109.387294,26.0889995 C110.103063,26.7599157 110.975808,27.0934063 112.013426,27.0934063 C112.657125,27.0934063 113.280091,26.9596166 113.883311,26.6959721 C114.484557,26.4303601 115.032491,26.0968695 115.522176,25.6915653 C116.010873,25.2882285 116.423551,24.8534119 116.761197,24.3949853 C117.097855,23.9355749 117.3348,23.493872 117.475979,23.0747953 L117.475979,17.9671752 L117.475979,17.9671752 Z" id="Shape"></path>
                    <path d="M136.203461,10.598902 C136.035626,10.5152834 135.782885,10.3972336 135.447214,10.2437689 C135.111543,10.091288 134.81635,10.0135719 134.563609,10.0135719 C134.004816,10.0135719 133.472678,10.1749066 132.968185,10.4946247 C132.462704,10.8163103 132.016458,11.1852158 131.624513,11.6042925 C131.232568,12.0233692 130.916642,12.4355597 130.678711,12.8398801 C130.441766,13.2442006 130.293676,13.5452275 130.238389,13.7390259 L130.238389,28.8503804 L127.338784,28.8503804 L127.338784,7.83752108 L130.112019,7.83752108 L130.112019,10.7671229 C130.16928,10.6569431 130.314409,10.4119898 130.553328,10.0352143 C130.790272,9.6584388 131.120019,9.26789081 131.540595,8.86357034 C131.961171,8.45924987 132.457767,8.10411681 133.03137,7.79620366 C133.60596,7.48927425 134.256569,7.33580955 134.985173,7.33580955 C135.348487,7.33580955 135.747343,7.40467191 136.182728,7.54534789 C136.615152,7.68504012 136.918243,7.8237486 137.086078,7.96344083 L136.203461,10.598902 Z" id="Path"></path>
                    <path d="M151.839808,28.9133403 C151.587067,28.9822026 151.307671,29.0451625 150.998656,29.1012362 C150.690628,29.1573098 150.360881,29.2104322 150.011388,29.2684733 C149.660908,29.324547 149.34597,29.3511082 149.066573,29.3511082 C148.225421,29.3511082 147.518537,29.2261722 146.945922,28.9743327 C146.371332,28.7244606 145.908303,28.3821163 145.560785,27.9482834 C145.210305,27.5174017 144.957564,27.0235602 144.803551,26.4628238 C144.650524,25.9060223 144.573517,25.333481 144.573517,24.7471671 L144.573517,10.2231102 L141.045022,10.2231102 L141.045022,7.83752108 L144.573517,7.83752108 L144.573517,2.14457085 L147.472135,2.14457085 L147.472135,7.83752108 L151.631494,7.83752108 L151.631494,10.2231102 L147.472135,10.2231102 L147.472135,24.4549939 C147.472135,25.0422915 147.605417,25.6059792 147.870992,26.1509756 C148.136567,26.6969558 148.59071,26.9674865 149.236383,26.9674865 C149.627341,26.9674865 150.061739,26.8907542 150.538589,26.7382732 C151.012478,26.5857923 151.336301,26.4529863 151.505124,26.340839 L152.388729,28.7283956 C152.273219,28.7805343 152.091561,28.8425104 151.839808,28.9133403 Z" id="Path"></path>
                </g>
                <g id="Group-2">
                    <g id="Group" transform="translate(0.000000, 14.814189)">
                        <path d="M28.8922254,0.971387534 L1.12520504,0.971387534 C0.504547849,0.971387534 0,1.47718627 0,2.0972659 L0,29.933127 C0,30.5574392 0.505603388,31.0621798 1.12520504,31.0621798 L15.0129374,31.0621798 L15.0129374,18.3801759 C15.0129374,17.7590381 15.5143186,16.7495569 16.1349758,16.1241865 L28.8901143,3.33742514 C29.511827,2.71311289 30.017437,2.71311289 30.017437,3.33742514 L30.017437,2.0972659 C30.0195415,1.47718627 29.5139381,0.971387534 28.8922254,0.971387534" id="Path" fill="#E1061C" fill-rule="nonzero"></path>
                        <rect id="Rectangle" x="0" y="0.975620159" width="30.0195415" height="30.0833852"></rect>
                    </g>
                    <g id="Group" transform="translate(31.666183, -0.000000)">
                        <path d="M2.09419023,15.7855765 L15.9787559,15.7855765 L15.9787559,0.466646953 C15.9787559,-0.155548984 15.4699859,-0.155548984 14.8503843,0.466646953 L2.09419023,13.2555247 C1.47247751,13.8808951 0.970040739,14.8903762 0.970040739,15.5136303 L0.970040739,16.9114549 C0.970040739,16.2913752 1.47353305,15.7855765 2.09419023,15.7855765" id="Path" fill="#E1061C" fill-rule="nonzero"></path>
                        <rect id="Rectangle" x="0.968985199" y="0.00211631271" width="15.0118818" height="16.9093386"></rect>
                    </g>
                    <g id="Group" opacity="0.8" transform="translate(31.666183, 14.814189)">
                        <g>
                            <path d="M29.8622661,0.971387534 L15.980867,0.971387534 L15.980867,13.4893772 C15.980867,14.110515 15.4710415,15.1231706 14.8514398,15.7453666 L2.09419023,28.5353024 C1.47247751,29.1585565 0.968985199,29.1585565 0.968985199,28.5353024 L0.968985199,29.9320688 C0.968985199,30.5563811 1.47458859,31.0611216 2.09419023,31.0611216 L29.8622661,31.0611216 C30.4808122,31.0611216 30.9874711,30.5553229 30.9874711,29.9320688 L30.9874711,2.0972659 C30.9874711,1.47718627 30.4808122,0.971387534 29.8622661,0.971387534" id="Path" fill="#5C6971" fill-rule="nonzero"></path>
                            <rect id="Rectangle" x="0.968985199" y="0.975620159" width="30.0184859" height="30.0833852"></rect>
                        </g>
                    </g>
                    <g id="Group" transform="translate(31.666183, 14.814189)">
                        <path d="M2.09419023,28.5353024 L14.8503843,15.7453666 C15.4699859,15.1231706 15.9787559,14.110515 15.9787559,13.4893772 L15.9787559,0.971387534 L2.09419023,0.971387534 C1.47247751,0.971387534 0.970040739,1.47718627 0.970040739,2.09938221 L0.970040739,28.5331861 C0.970040739,29.1585565 1.47353305,29.1585565 2.09419023,28.5353024" id="Path" fill="#E1061C" fill-rule="nonzero"></path>
                        <rect id="Rectangle" x="0.968985199" y="0.975620159" width="15.0118818" height="28.03162"></rect>
                    </g>
                    <g id="Group" opacity="0.6" transform="translate(31.666183, 14.814189)">
                        <g>
                            <path d="M2.09419023,28.5353024 L14.8503843,15.7453666 C15.4699859,15.1231706 15.9787559,14.110515 15.9787559,13.4893772 L15.9787559,0.971387534 L2.09419023,0.971387534 C1.47247751,0.971387534 0.970040739,1.47718627 0.970040739,2.09938221 L0.970040739,28.5331861 C0.970040739,29.1585565 1.47353305,29.1585565 2.09419023,28.5353024" id="Path" fill="#5C6971" fill-rule="nonzero"></path>
                            <rect id="Rectangle" x="0.968985199" y="0.975620159" width="15.0118818" height="28.03162"></rect>
                        </g>
                    </g>
                    <g id="Group" opacity="0.8" transform="translate(14.777552, 44.442567)">
                        <g>
                            <path d="M14.1146733,1.4327437 L0.236440833,1.4327437 L0.236440833,16.5887172 C0.236440833,17.2109131 0.737822063,17.2109131 1.35847925,16.5887172 L14.1146733,3.79878131 C14.736386,3.17658538 15.2419894,2.16816237 15.2419894,1.54173381 L15.2419894,0.306865343 C15.2419894,0.928003123 14.736386,1.4327437 14.1146733,1.4327437" id="Path" fill="#5C6971" fill-rule="nonzero"></path>
                            <rect id="Rectangle" x="0.235385293" y="0.308981656" width="15.0076597" height="16.7506151"></rect>
                        </g>
                    </g>
                    <g id="Group" transform="translate(14.777552, 16.930502)">
                        <path d="M14.1146733,1.22111243 L1.35953479,14.0078738 C0.736766524,14.6332442 0.237496372,15.6427254 0.237496372,16.2638632 L0.237496372,28.9448089 L14.1146733,28.9448089 C14.736386,28.9448089 15.2419894,28.4400684 15.2419894,27.8168143 L15.2419894,1.22111243 C15.2419894,0.595742028 14.736386,0.596800184 14.1146733,1.22111243" id="Path" fill="#E1061C" fill-rule="nonzero"></path>
                        <rect id="Rectangle" x="0.235385293" y="0.753407325" width="15.0076597" height="28.1892853"></rect>
                    </g>
                    <g id="Group" opacity="0.6" transform="translate(14.777552, 16.930502)">
                        <g>
                            <path d="M14.1146733,1.22111243 L1.35953479,14.0078738 C0.736766524,14.6332442 0.237496372,15.6427254 0.237496372,16.2638632 L0.237496372,28.9448089 L14.1146733,28.9448089 C14.736386,28.9448089 15.2419894,28.4400684 15.2419894,27.8168143 L15.2419894,1.22111243 C15.2419894,0.595742028 14.736386,0.596800184 14.1146733,1.22111243" id="Path" fill="#5C6971" fill-rule="nonzero"></path>
                            <rect id="Rectangle" x="0.235385293" y="0.753407325" width="15.0076597" height="28.1892853"></rect>
                        </g>
                    </g>
                    <path d="M100.276246,30.0439799 C100.276246,32.2660821 99.9515883,34.3235071 99.3117594,36.2183391 C98.6666601,38.1142135 97.7569858,39.7516068 96.589061,41.129477 C95.4221902,42.5042204 93.998123,43.5787924 92.3147512,44.3500662 C90.6355957,45.1192554 88.7624888,45.5007233 86.6964846,45.5007233 L79.1861376,45.5007233 C78.8572634,45.5007233 78.5937425,45.3985816 78.3997911,45.193256 C78.2047856,44.9848036 78.109918,44.7179846 78.109918,44.3917566 L78.109918,16.9844387 C78.109918,16.6582108 78.2068937,16.392434 78.3997911,16.1871084 C78.5979588,15.9776138 78.8572634,15.8723453 79.1861376,15.8723453 L86.6522131,15.8723453 C88.689757,15.8723453 90.5470527,16.2121227 92.2230459,16.8958465 C93.9064177,17.5754012 95.3378635,18.5384512 96.5194915,19.7829118 C97.7032276,21.0284148 98.6255509,22.5146802 99.2843533,24.2490039 C99.9463179,25.9802009 100.276246,27.9135966 100.276246,30.0439799 M94.8255788,30.0439799 C94.8255788,28.6212924 94.6453305,27.2924085 94.286942,26.0656663 C93.9243372,24.8326705 93.3930789,23.7695635 92.6868428,22.8815563 C91.984823,21.9914647 91.1320692,21.287938 90.1443927,20.7688916 C89.154608,20.2498451 88.0288465,19.9913642 86.7681623,19.9913642 L83.3940401,19.9913642 L83.3940401,41.387958 L86.500425,41.387958 C87.7568929,41.387958 88.8953034,41.105505 89.9198728,40.5416413 C90.9391719,39.9777777 91.8161696,39.1929545 92.5519201,38.1850873 C93.2845083,37.1751355 93.847389,35.9807034 94.2395082,34.6049178 C94.6284651,33.2239208 94.8255788,31.704303 94.8255788,30.0439799" id="Shape" fill="#E1061C" fill-rule="nonzero"></path>
                    <path d="M125.290555,45.1932668 C125.080254,45.3985852 124.811537,45.5007233 124.47803,45.5007233 L121.362818,45.5007233 C121.030373,45.5007233 120.765904,45.3985852 120.575784,45.1911824 C120.379291,44.9848218 120.280513,44.7180121 120.280513,44.3897112 L120.280513,32.2060986 L109.826021,32.2060986 L109.826021,44.3897112 C109.826021,44.7159277 109.719808,44.9827373 109.51057,45.1911824 C109.301331,45.3996274 109.027303,45.5007233 108.696982,45.5007233 L105.581771,45.5007233 C105.250388,45.5007233 104.986981,45.3985852 104.79155,45.1932668 C104.598244,44.9848218 104.498404,44.7180121 104.498404,44.3917957 L104.498404,16.9843996 C104.498404,16.6581831 104.600368,16.3924157 104.79155,16.1870973 C104.989105,15.9776101 105.25145,15.8723453 105.581771,15.8723453 L108.696982,15.8723453 C109.027303,15.8723453 109.299207,15.9776101 109.51057,16.1870973 C109.719808,16.3913735 109.826021,16.6571409 109.826021,16.9843996 L109.826021,27.862104 L120.280513,27.862104 L120.280513,16.9843996 C120.280513,16.6581831 120.381415,16.3924157 120.575784,16.1870973 C120.768029,15.9776101 121.030373,15.8723453 121.362818,15.8723453 L124.47803,15.8723453 C124.809413,15.8723453 125.07813,15.9776101 125.290555,16.1870973 C125.500856,16.3913735 125.609192,16.6571409 125.609192,16.9843996 L125.609192,44.3938801 C125.609192,44.7180121 125.500856,44.9848218 125.290555,45.1932668" id="Path" fill="#E1061C" fill-rule="nonzero"></path>
                    <path d="M149.886599,36.9732367 C149.886599,38.3041583 149.615117,39.5027172 149.07636,40.5678714 C148.538656,41.63511 147.79997,42.5324659 146.855042,43.2609813 C145.914322,43.9822012 144.815764,44.5397916 143.560419,44.9274994 C142.305074,45.3099961 140.975019,45.5007233 139.571306,45.5007233 L132.705317,45.5007233 C132.496969,45.5007233 132.317033,45.4277675 132.168665,45.2828982 C132.016087,45.13386 131.942429,44.9556395 131.942429,44.7492789 L131.942429,16.5862696 C131.942429,16.3778245 132.016087,16.2079418 132.168665,16.0724526 C132.317033,15.9390477 132.496969,15.8723453 132.705317,15.8723453 L140.112167,15.8723453 C141.281226,15.8723453 142.411352,16.023468 143.503597,16.3163333 C144.595842,16.6123252 145.552345,17.0677776 146.376264,17.6722682 C147.202287,18.2809278 147.854688,19.05009 148.351354,19.9839237 C148.84802,20.9135886 149.093196,22.0162629 149.093196,23.2909043 C149.093196,24.0892488 148.910103,24.8521576 148.551283,25.5785886 C148.19141,26.3008507 147.739991,26.9532836 147.204392,27.5306764 C146.662478,28.1091114 146.070057,28.5958305 145.427126,28.9939606 C144.782092,29.3962595 144.160207,29.6849559 143.562524,29.8610919 C144.396965,30.0101301 145.198786,30.2831931 145.959569,30.6844498 C146.723509,31.0867488 147.393798,31.5932702 147.979906,32.2186053 C148.560753,32.8387293 149.023747,33.5557803 149.366784,34.3718426 C149.70982,35.1847783 149.886599,36.0529518 149.886599,36.9732367 M145.763849,23.4149291 C145.763849,21.905787 145.23772,20.7061858 144.18967,19.8182099 C143.139516,18.9312763 141.778945,18.4883306 140.101644,18.4883306 L135.209693,18.4883306 L135.209693,28.7438265 L139.968007,28.7438265 C140.716163,28.7438265 141.435909,28.6135484 142.12619,28.3446543 C142.812263,28.0768024 143.424678,27.7078547 143.965539,27.2336422 C144.505348,26.7625564 144.935721,26.1987126 145.268235,25.5483641 C145.595488,24.8969733 145.763849,24.1851335 145.763849,23.4149291 M146.486751,36.845043 C146.486751,35.1274559 145.895382,33.7715209 144.71159,32.7824492 C143.527799,31.7871241 141.992553,31.2920671 140.103749,31.2920671 L135.207588,31.2920671 L135.207588,42.8899491 L140.103749,42.8899491 C140.972915,42.8899491 141.795781,42.7419532 142.576557,42.4428345 C143.353124,42.148927 144.038145,41.7320369 144.618992,41.2005021 C145.206152,40.6668828 145.660728,40.0332099 145.98798,39.2921878 C146.324703,38.5490812 146.486751,37.7340611 146.486751,36.845043" id="Shape" fill="#5C6971" fill-rule="nonzero"></path>
                    <path d="M176.795616,44.7471679 C176.735396,44.9524935 176.630803,45.1338471 176.480781,45.2828905 C176.328646,45.4277649 176.151156,45.5007233 175.938801,45.5007233 L173.687415,45.5007233 C173.479286,45.5007233 173.285947,45.4277649 173.122191,45.2828905 C172.958435,45.1338471 172.846446,44.9535358 172.78517,44.7471679 L167.806976,19.9131946 L162.914358,44.7471679 C162.855195,44.9524935 162.741094,45.1338471 162.578394,45.2828905 C162.413581,45.4277649 162.223412,45.5007233 162.014227,45.5007233 L159.761784,45.5007233 C159.556824,45.5007233 159.365599,45.4277649 159.200786,45.2828905 C159.034917,45.1338471 158.921872,44.9535358 158.861652,44.7471679 L153.080524,16.5821257 C153.02136,16.3747155 153.058338,16.2037846 153.191456,16.0693328 C153.329856,15.9390501 153.503121,15.8723453 153.71125,15.8723453 L155.603429,15.8723453 C156.084133,15.8723453 156.384177,16.1089388 156.504617,16.5831679 L161.02218,41.4609163 L165.914798,16.5831679 C166.032068,16.1089388 166.335282,15.8723453 166.814929,15.8723453 L169.067372,15.8723453 C169.521664,15.8723453 169.803747,16.1089388 169.925244,16.5831679 L174.858009,41.4609163 L179.332255,16.5831679 C179.453752,16.1089388 179.739005,15.8723453 180.190127,15.8723453 L181.991447,15.8723453 C182.199577,15.8723453 182.364389,15.9390501 182.489056,16.0693328 C182.607383,16.2037846 182.639078,16.3747155 182.577801,16.5821257 L176.795616,44.7471679 Z" id="Path" fill="#5C6971" fill-rule="nonzero"></path>
                </g>
            </g>
        </g>
    </g>
</svg>
